# xmcd CD database file
#
# Track frame offsets:
#	150
#	19985
#	39152
#	56914
#	76757
#	95432
#	115517
#	134480
#	154967
#	173959
#
# Disc length: 2574 seconds
#
# Revision: 0
# Processed by: cddbd v1.5.1PL2 Copyright (c) Steve Scherf et al.
# Submitted via: CDex 1.51
#
DISCID=7a0a0c0a
DTITLE=La Banda Del Swing - Despiertame
DYEAR=1996
DGENRE=Merengue
TTITLE0=Pero No Puedo
TTITLE1=Vida
TTITLE2=Mujeres Solteras
TTITLE3=Tu Solo Tu
TTITLE4=Mejores Que Ella
TTITLE5=Despiertame
TTITLE6=Que Le Den
TTITLE7=Que Haras?
TTITLE8=Muchachita
TTITLE9=Que Buena Esta
EXTD=YEAR: 1996
EXTT0=
EXTT1=
EXTT2=
EXTT3=
EXTT4=
EXTT5=
EXTT6=
EXTT7=
EXTT8=
EXTT9=
PLAYORDER=
